<svg width="64" height="64" viewBox="0 0 64 64" fill="none" xmlns="http://www.w3.org/2000/svg">
<path d="M32 39.5C39.5343 39.5 46.2507 40.5404 50.9961 42.1504C53.381 42.9596 55.1316 43.8666 56.2354 44.752C57.3626 45.6562 57.5 46.2636 57.5 46.5C57.5 46.7364 57.3626 47.3438 56.2354 48.248C55.1316 49.1334 53.381 50.0404 50.9961 50.8496C46.2507 52.4596 39.5343 53.5 32 53.5C24.4657 53.5 17.7493 52.4596 13.0039 50.8496C10.619 50.0404 8.86838 49.1334 7.76465 48.248C6.63745 47.3438 6.5 46.7364 6.5 46.5C6.5 46.2636 6.63745 45.6562 7.76465 44.752C8.86838 43.8666 10.619 42.9596 13.0039 42.1504C17.7493 40.5404 24.4657 39.5 32 39.5Z" stroke="white" stroke-width="5"/>
<path d="M32 10.5C39.5343 10.5 46.2507 11.5404 50.9961 13.1504C53.381 13.9596 55.1316 14.8666 56.2354 15.752C57.3626 16.6562 57.5 17.2636 57.5 17.5C57.5 17.7364 57.3626 18.3438 56.2354 19.248C55.1316 20.1334 53.381 21.0404 50.9961 21.8496C46.2507 23.4596 39.5343 24.5 32 24.5C24.4657 24.5 17.7493 23.4596 13.0039 21.8496C10.619 21.0404 8.86838 20.1334 7.76465 19.248C6.63745 18.3438 6.5 17.7364 6.5 17.5C6.5 17.2636 6.63745 16.6562 7.76465 15.752C8.86838 14.8666 10.619 13.9596 13.0039 13.1504C17.7493 11.5404 24.4657 10.5 32 10.5Z" stroke="white" stroke-width="5"/>
<path d="M57.5 18V46" stroke="white" stroke-width="5"/>
<path d="M6.5 18V46" stroke="white" stroke-width="5"/>
</svg>
