<svg width="32" height="32" viewBox="0 0 32 32" fill="none" xmlns="http://www.w3.org/2000/svg">
<path d="M16 19.5C19.7868 19.5 23.1733 20.022 25.5781 20.8379C26.7855 21.2475 27.6912 21.7128 28.2744 22.1807C28.867 22.656 29 23.0243 29 23.25C29 23.4757 28.867 23.844 28.2744 24.3193C27.6912 24.7872 26.7855 25.2525 25.5781 25.6621C23.1733 26.478 19.7868 27 16 27C12.2132 27 8.8267 26.478 6.42188 25.6621C5.21446 25.2525 4.30879 24.7872 3.72559 24.3193C3.13302 23.844 3 23.4757 3 23.25C3 23.0243 3.13302 22.656 3.72559 22.1807C4.30879 21.7128 5.21446 21.2475 6.42188 20.8379C8.8267 20.022 12.2132 19.5 16 19.5Z" stroke="black" stroke-width="2"/>
<path d="M16 5C19.7868 5 23.1733 5.522 25.5781 6.33789C26.7855 6.74755 27.6912 7.21285 28.2744 7.68066C28.867 8.156 29 8.52427 29 8.75C29 8.97573 28.867 9.344 28.2744 9.81934C27.6912 10.2872 26.7855 10.7525 25.5781 11.1621C23.1733 11.978 19.7868 12.5 16 12.5C12.2132 12.5 8.8267 11.978 6.42188 11.1621C5.21446 10.7525 4.30879 10.2872 3.72559 9.81934C3.13302 9.344 3 8.97573 3 8.75C3 8.52427 3.13302 8.156 3.72559 7.68066C4.30879 7.21285 5.21446 6.74755 6.42188 6.33789C8.8267 5.522 12.2132 5 16 5Z" stroke="black" stroke-width="2"/>
<path d="M29 9V23" stroke="black" stroke-width="2"/>
<path d="M3 9V23" stroke="black" stroke-width="2"/>
</svg>
