<svg width="32" height="32" viewBox="0 0 32 32" fill="none" xmlns="http://www.w3.org/2000/svg">
<rect width="32" height="32" fill="#6741D9"/>
<path d="M16 19C19.2361 19 22.1243 19.4386 24.1689 20.1201C25.1965 20.4626 25.9565 20.8487 26.4385 21.2285C26.9314 21.6171 27 21.8855 27 22C27 22.1145 26.9314 22.3829 26.4385 22.7715C25.9565 23.1513 25.1965 23.5374 24.1689 23.8799C22.1243 24.5614 19.2361 25 16 25C12.7639 25 9.8757 24.5614 7.83105 23.8799C6.8035 23.5374 6.04351 23.1513 5.56152 22.7715C5.06856 22.3829 5 22.1145 5 22C5 21.8855 5.06856 21.6171 5.56152 21.2285C6.04351 20.8487 6.8035 20.4626 7.83105 20.1201C9.8757 19.4386 12.7639 19 16 19Z" stroke="white" stroke-width="2"/>
<path d="M16 7C19.2361 7 22.1243 7.43859 24.1689 8.12012C25.1965 8.46263 25.9565 8.84867 26.4385 9.22852C26.9314 9.61711 27 9.88547 27 10C27 10.1145 26.9314 10.3829 26.4385 10.7715C25.9565 11.1513 25.1965 11.5374 24.1689 11.8799C22.1243 12.5614 19.2361 13 16 13C12.7639 13 9.8757 12.5614 7.83105 11.8799C6.8035 11.5374 6.04351 11.1513 5.56152 10.7715C5.06856 10.3829 5 10.1145 5 10C5 9.88547 5.06856 9.61711 5.56152 9.22852C6.04351 8.84867 6.8035 8.46263 7.83105 8.12012C9.8757 7.43859 12.7639 7 16 7Z" stroke="white" stroke-width="2"/>
<path d="M27 10V22" stroke="white" stroke-width="2"/>
<path d="M5 10V22" stroke="white" stroke-width="2"/>
</svg>
