<svg width="64" height="64" viewBox="0 0 64 64" fill="none" xmlns="http://www.w3.org/2000/svg">
<path d="M32 38.5C39.6134 38.5 46.4434 39.5494 51.3174 41.2031C53.7617 42.0325 55.6324 42.9868 56.8613 43.9727C58.1041 44.9697 58.5 45.8336 58.5 46.5C58.5 47.1664 58.1041 48.0303 56.8613 49.0273C55.6324 50.0132 53.7617 50.9675 51.3174 51.7969C46.4434 53.4506 39.6134 54.5 32 54.5C24.3866 54.5 17.5566 53.4506 12.6826 51.7969C10.2383 50.9675 8.36764 50.0132 7.13867 49.0273C5.8959 48.0303 5.5 47.1664 5.5 46.5C5.5 45.8336 5.8959 44.9697 7.13867 43.9727C8.36764 42.9868 10.2383 42.0325 12.6826 41.2031C17.5566 39.5494 24.3866 38.5 32 38.5Z" stroke="black" stroke-width="3"/>
<path d="M32 9.5C39.6134 9.5 46.4434 10.5494 51.3174 12.2031C53.7617 13.0325 55.6324 13.9868 56.8613 14.9727C58.1041 15.9697 58.5 16.8336 58.5 17.5C58.5 18.1664 58.1041 19.0303 56.8613 20.0273C55.6324 21.0132 53.7617 21.9675 51.3174 22.7969C46.4434 24.4506 39.6134 25.5 32 25.5C24.3866 25.5 17.5566 24.4506 12.6826 22.7969C10.2383 21.9675 8.36764 21.0132 7.13867 20.0273C5.8959 19.0303 5.5 18.1664 5.5 17.5C5.5 16.8336 5.8959 15.9697 7.13867 14.9727C8.36764 13.9868 10.2383 13.0325 12.6826 12.2031C17.5566 10.5494 24.3866 9.5 32 9.5Z" stroke="black" stroke-width="3"/>
<path d="M58.5 18V46" stroke="black" stroke-width="3"/>
<path d="M5.5 18V46" stroke="black" stroke-width="3"/>
</svg>
