<svg width="32" height="32" viewBox="0 0 32 32" fill="none" xmlns="http://www.w3.org/2000/svg">
<path d="M16 20C19.7474 20 23.0775 20.5174 25.418 21.3115C26.5955 21.7111 27.4404 22.1538 27.9609 22.5713C28.4956 23.0002 28.5 23.2393 28.5 23.25C28.5 23.2607 28.4956 23.4998 27.9609 23.9287C27.4404 24.3462 26.5955 24.7889 25.418 25.1885C23.0775 25.9826 19.7474 26.5 16 26.5C12.2526 26.5 8.92254 25.9826 6.58203 25.1885C5.40451 24.7889 4.55961 24.3462 4.03906 23.9287C3.50443 23.4998 3.5 23.2607 3.5 23.25C3.5 23.2393 3.50443 23.0002 4.03906 22.5713C4.55961 22.1538 5.40451 21.7111 6.58203 21.3115C8.92254 20.5174 12.2526 20 16 20Z" stroke="black" stroke-width="3"/>
<path d="M16 5.5C19.7474 5.5 23.0775 6.01742 25.418 6.81152C26.5955 7.21107 27.4404 7.65376 27.9609 8.07129C28.4956 8.50015 28.5 8.73932 28.5 8.75C28.5 8.76068 28.4956 8.99985 27.9609 9.42871C27.4404 9.84624 26.5955 10.2889 25.418 10.6885C23.0775 11.4826 19.7474 12 16 12C12.2526 12 8.92254 11.4826 6.58203 10.6885C5.40451 10.2889 4.55961 9.84624 4.03906 9.42871C3.50443 8.99985 3.5 8.76068 3.5 8.75C3.5 8.73932 3.50443 8.50015 4.03906 8.07129C4.55961 7.65376 5.40451 7.21107 6.58203 6.81152C8.92254 6.01742 12.2526 5.5 16 5.5Z" stroke="black" stroke-width="3"/>
<path d="M28.5 8.5V22.5" stroke="black" stroke-width="3"/>
<path d="M3.5 9V23" stroke="black" stroke-width="3"/>
</svg>
